<svg width="1360" height="204" viewBox="0 0 1360 204" fill="none" xmlns="http://www.w3.org/2000/svg">
<path d="M570.79 133.318C560.789 133.318 557.744 130.357 557.731 120.669V58.2037H605.518V32.9055L573.272 32.8807C571.392 32.8807 569.625 33.5869 568.271 34.8753L557.518 45.0714V2.16846L529.533 26.9588V27.4543C529.533 38.0345 529.533 48.627 529.533 59.2072C529.533 65.476 529.52 71.7448 529.495 78.0136C529.432 92.8185 529.382 108.119 529.746 123.171C530.222 142.783 546.364 158.393 566.504 158.703C571.179 158.777 575.879 158.802 580.566 158.802C584.677 158.802 588.775 158.79 592.798 158.765L601.683 158.74C602.448 158.74 603.175 158.591 603.827 158.468C604.09 158.418 604.34 158.368 604.591 158.331L605.544 158.183V133.33H570.803L570.79 133.318Z" fill="white"/>
<path d="M70.5091 0.693505C51.0457 0.668727 31.595 0.681116 12.1317 0.693505H5.4016C4.43658 0.693505 3.47156 0.75545 2.48148 0.829783L0 0.966062V158.752H22.7594C29.878 158.752 36.959 158.752 44.0274 158.752C52.9006 158.752 61.7362 158.752 70.5843 158.739C93.5567 158.702 109.624 142.832 109.661 120.135C109.711 94.2425 109.699 65.3639 109.661 39.4833C109.636 16.316 93.8951 0.730672 70.5091 0.693505ZM81.3749 122.787C81.3749 129.836 77.8783 133.28 70.7096 133.305C59.9565 133.342 49.1909 133.33 38.4378 133.317H30.3668C29.7401 133.317 29.101 133.268 28.3615 133.218H28.161V26.3386C28.161 26.3386 28.2111 26.3386 28.2362 26.3386C28.9756 26.2395 29.6649 26.1404 30.3292 26.1404C43.7768 26.1156 57.2244 26.0909 70.672 26.1404C77.8532 26.1652 81.3498 29.5969 81.3624 36.6215C81.4 64.348 81.4 95.0726 81.3624 122.799L81.3749 122.787Z" fill="white"/>
<path d="M353.861 32.9052L349.061 32.868C343.509 32.8184 337.769 32.7689 332.117 33.0043C329.736 33.1034 327.029 34.1317 325.061 35.6803C322.229 37.8979 319.659 40.289 316.677 43.0641C316 43.6959 315.298 44.3526 314.571 45.0092V33.0538H286.748V203.067H314.684V158.752H326.465C335.714 158.765 344.725 158.777 353.736 158.752C376.307 158.69 392.424 143.353 392.926 121.449C393.302 105.12 393.314 87.9245 392.926 70.357C392.462 48.7506 376.031 33.0043 353.861 32.9052ZM364.639 124.261C364.589 129.378 360.905 133.144 355.891 133.219C346.053 133.367 336.39 133.342 326.176 133.305C322.454 133.305 318.719 133.28 314.934 133.28V58.3273H343.735C347.269 58.3025 350.803 58.2901 354.337 58.3397C360.716 58.4264 364.564 61.8953 364.627 67.6066C364.852 85.4343 364.852 103.956 364.627 124.249L364.639 124.261Z" fill="white"/>
<path d="M1327.08 98.2073C1346.84 84.2201 1356.13 63.8527 1356.28 34.2183V33.1033H1328.37L1328.29 34.144C1327.34 48.2426 1325.6 61.7342 1315.08 71.794C1305.16 81.2963 1292.44 83.7741 1278.06 85.6201V0H1250.33V158.455H1278.17V142.535C1278.21 133.949 1278.22 125.067 1278.11 116.32C1278.07 113.768 1278.53 113.285 1281.16 113.049C1287.25 112.517 1292.91 111.563 1297.99 110.237C1301.01 109.444 1301.97 110.175 1303.34 112.777C1310.7 126.751 1318.4 140.85 1325.84 154.49L1326.2 155.147C1327.44 157.414 1328.67 158.579 1329.88 158.616C1334.99 158.74 1340.05 158.764 1345.25 158.764C1347.31 158.764 1349.39 158.764 1351.5 158.764H1359.91L1327.06 98.232L1327.08 98.2073Z" fill="white"/>
<path d="M474.163 32.905C461.267 32.8431 448.37 32.8678 435.474 32.8802H424.245C423.368 32.8926 422.49 32.9793 421.588 33.0661C421.187 33.1032 420.773 33.1404 420.347 33.1776L419.307 33.2519V58.3271H436.477C447.656 58.3271 458.823 58.3024 470.002 58.3643C472.546 58.3767 475.078 58.6493 477.496 59.1572C479.427 59.566 482.773 60.8297 483.462 64.6951C483.976 67.6065 484.164 70.5674 484.364 73.6894C484.427 74.6806 484.49 75.6717 484.565 76.6876C480.429 76.6876 476.369 76.6876 472.346 76.6628C462.482 76.638 453.17 76.6132 443.708 76.7124C425.486 76.8858 410.86 88.4819 407.301 105.566C406.123 111.24 405.897 117.707 406.611 125.909C408.028 142.262 420.661 155.667 436.652 157.798C442.417 158.566 448.308 158.727 454.123 158.727C456.291 158.727 458.459 158.702 460.602 158.678C462.908 158.653 465.265 158.628 467.533 158.628C469.513 158.628 472.007 157.649 473.875 156.138C476.745 153.809 479.389 151.368 482.447 148.531C483.111 147.912 483.788 147.28 484.49 146.636V158.517H512.187L512.312 157.538C512.35 157.253 512.388 156.993 512.425 156.745C512.513 156.175 512.588 155.68 512.588 155.172C512.588 146.797 512.613 138.422 512.638 130.047C512.701 110.15 512.776 89.5721 512.438 69.3409C512.087 47.9824 496.346 32.9917 474.163 32.8926V32.905ZM484.151 102.184V133.317H468.297C460.828 133.317 453.371 133.33 445.901 133.317C437.83 133.293 434.359 129.836 434.309 121.746L434.284 119.355C434.246 116.778 434.221 114.115 434.371 111.525C434.685 106.186 438.232 102.382 442.994 102.296C448.96 102.172 455 102.134 461.003 102.134C465.026 102.134 469.049 102.147 472.997 102.159C476.694 102.172 480.417 102.184 484.151 102.196V102.184Z" fill="white"/>
<path d="M1088.85 32.9669C1076.16 32.7935 1063.25 32.8306 1050.75 32.8802C1045.65 32.8926 1040.55 32.9174 1035.45 32.9174C1034.93 32.9174 1034.39 33.0041 1033.87 33.1032L1032.34 33.3262V58.3395H1045.67C1058.01 58.3271 1070.22 58.3271 1082.42 58.3767C1085.02 58.3767 1087.55 58.6244 1089.96 59.0828C1093.9 59.8262 1096.27 62.3164 1096.77 66.2808C1097.09 68.7214 1097.19 71.2364 1097.29 73.9C1097.33 74.8044 1097.36 75.7336 1097.4 76.6999H1093.12C1089.31 76.6999 1085.46 76.6999 1081.64 76.6752C1073.16 76.6504 1064.4 76.6256 1055.77 76.7619C1038.56 77.0468 1024.05 88.5314 1020.46 104.711C1019.13 110.72 1018.82 117.645 1019.5 125.884C1020.85 142.238 1033.46 155.667 1049.49 157.81C1055.27 158.579 1061.18 158.752 1067.02 158.752C1069.17 158.752 1071.3 158.727 1073.41 158.702C1075.54 158.678 1077.69 158.653 1079.82 158.653C1080.01 158.653 1080.16 158.616 1080.39 158.653C1082.4 158.653 1084.89 157.687 1086.74 156.187C1089.61 153.858 1092.38 151.294 1095.3 148.581C1095.96 147.961 1096.65 147.329 1097.35 146.685V158.393H1125.35V157.278C1125.35 148.296 1125.39 139.351 1125.42 130.431C1125.51 109.84 1125.6 88.5562 1125.2 67.6808C1124.84 48.1682 1109.21 33.2395 1088.84 32.9669H1088.85ZM1097.1 102.147V133.317H1069.54C1065.62 133.342 1061.7 133.355 1057.77 133.305C1051.29 133.218 1047.45 129.564 1047.23 123.27C1047.08 118.971 1047.1 115.205 1047.26 111.773C1047.52 106.136 1051.23 102.296 1056.48 102.221C1062.26 102.134 1067.99 102.11 1073.79 102.11C1077.75 102.11 1081.75 102.11 1085.85 102.134C1089.57 102.134 1093.3 102.159 1097.09 102.159L1097.1 102.147Z" fill="white"/>
<path d="M244.225 84.4556C236.179 83.3406 227.857 83.4273 219.836 83.514C216.515 83.5512 213.194 83.5884 209.86 83.5388C201.614 83.4273 197.779 79.3761 197.766 70.803C197.753 62.5519 201.751 58.3521 209.66 58.3397C221.716 58.3149 233.772 58.3273 245.829 58.3273H266.633V33.1777L264.653 33.0167C263.989 32.9547 263.387 32.9052 262.786 32.9052H250.955C236.605 32.8804 221.791 32.868 207.203 32.9671C204.145 32.9919 200.786 33.475 197.515 34.367C179.08 39.4094 167.575 57.1627 170.144 76.5638C172.663 95.6057 187.539 108.602 207.14 108.911C211.326 108.973 215.512 108.961 219.698 108.949C225.112 108.924 230.714 108.911 236.216 109.072C238.66 109.147 241.355 110.026 243.097 111.327C246.656 113.991 247.847 121.214 245.653 126.789C243.774 131.546 240.828 133.318 234.763 133.318C221.691 133.33 208.619 133.318 195.523 133.318H173.515V158.678H174.643C181.26 158.678 187.853 158.715 194.432 158.752C200.849 158.789 207.354 158.826 213.883 158.826C222.48 158.826 231.128 158.765 239.675 158.542C257.835 158.071 273.464 142.907 274.504 124.744C275.757 102.989 263.876 87.1688 244.237 84.4556H244.225Z" fill="white"/>
<path d="M710.003 32.9176L695.753 32.8928C683.433 32.868 671.114 32.8556 658.794 32.9052C636.862 33.0043 620.72 48.8002 620.406 70.4561C620.168 86.983 620.168 104.03 620.406 121.115C620.72 143.192 636.649 158.665 659.145 158.74C665.311 158.765 671.477 158.765 677.643 158.765C683.809 158.765 690.063 158.765 696.267 158.752H707.759C708.637 158.74 709.514 158.678 710.429 158.628L712.823 158.492V133.318H692.57C681.792 133.318 671.026 133.318 660.26 133.318C651.864 133.318 648.58 130.146 648.555 122.056C648.505 103.646 648.505 86.5246 648.555 69.7251C648.58 61.5484 651.838 58.3521 660.173 58.3397C671.239 58.3273 682.305 58.3273 693.372 58.3397H712.91V33.2768L711.118 33.0414C710.642 32.9671 710.316 32.9299 710.003 32.9299V32.9176Z" fill="white"/>
<path d="M1229.9 32.9048H1220.17C1207.21 32.88 1194.24 32.8676 1181.28 32.9048C1158.76 32.9791 1142.81 48.4406 1142.49 70.4929C1142.26 87.3047 1142.26 104.34 1142.49 121.151C1142.81 143.216 1158.76 158.665 1181.27 158.739C1187.55 158.764 1193.82 158.764 1200.09 158.764C1206.99 158.764 1213.88 158.764 1220.77 158.752H1229.89C1230.76 158.752 1231.64 158.677 1232.55 158.616L1234.91 158.479V133.317H1214.82C1203.84 133.317 1192.86 133.33 1181.88 133.317C1174.05 133.305 1170.69 130.047 1170.67 122.452C1170.61 106.086 1170.61 88.8286 1170.67 69.6876C1170.69 61.5357 1173.96 58.3641 1182.32 58.3393C1193.39 58.3269 1204.46 58.3269 1215.52 58.3393H1235V33.1774L1232.59 33.0287C1231.65 32.9668 1230.77 32.9048 1229.9 32.9048Z" fill="white"/>
<path d="M938.024 0.17334H836.296V25.3353H873.167V158.517H901.315V25.2981H938.024V0.17334Z" fill="white"/>
<path d="M1007.4 32.9053C997.278 32.8929 987.151 32.8929 977.025 32.9053C952.674 32.9301 936.933 48.5278 936.895 72.6614C936.87 94.8129 936.883 116.964 936.895 139.116V152.868C936.895 153.908 936.97 154.949 937.033 156.027L937.171 158.616H965.094V127.817C965.094 108.998 965.094 90.1918 965.094 71.373C965.094 61.0282 967.763 58.3398 978.09 58.3398H986.938C993.831 58.3398 1000.71 58.3398 1007.59 58.3398C1008.56 58.3398 1009.52 58.2779 1010.52 58.2035L1012.94 58.0549V33.1655L1010.34 33.0292C1009.32 32.9672 1008.36 32.9177 1007.4 32.9177V32.9053Z" fill="white"/>
<path d="M154.867 42.9028H127.308V158.603H154.867V42.9028Z" fill="white"/>
<path d="M154.867 0.780273H127.308V26.9829H154.867V0.780273Z" fill="white"/>
<path d="M838.289 79.1282C837.9 59.9997 824.816 45.6409 805.704 43.3861C798.209 42.5065 790.501 42.6675 783.044 42.841C780.438 42.9029 777.818 42.9525 775.212 42.9772C773.62 42.9772 772.066 44.179 770.875 45.2196C768.055 47.7098 765.286 50.262 762.19 53.1238L760.862 54.3379V68.3127H797.62C807.057 68.3127 810.24 71.509 810.24 80.9618C810.24 99.9912 810.24 109.097 810.24 128.114V158.517H837.7L837.963 157.773C838.026 157.6 838.088 157.451 838.138 157.327C838.264 157.03 838.401 156.72 838.401 156.324C838.401 147.85 838.452 139.363 838.489 130.877C838.577 110.658 838.677 99.6691 838.264 79.1034L838.289 79.1282Z" fill="white"/>
<path d="M760.873 2.16846H732.311V158.802H760.873V2.16846Z" fill="white"/>
</svg>
